<svg xmlns="http://www.w3.org/2000/svg" width="28" height="29" viewBox="0 0 28 29" fill="none"><g clip-path="url(#clip0_31585_6213)"><path d="M22.129 17.536C21.5557 16.9391 20.8643 16.62 20.1315 16.62C19.4046 16.62 18.7073 16.9332 18.1104 17.5301L16.243 19.3916C16.0894 19.3088 15.9357 19.232 15.788 19.1552C15.5752 19.0488 15.3743 18.9484 15.2029 18.842C13.4537 17.731 11.864 16.2831 10.3393 14.4098C9.60064 13.4761 9.10423 12.6901 8.74374 11.8923C9.22833 11.4491 9.67746 10.9881 10.1148 10.5449C10.2802 10.3795 10.4457 10.2081 10.6112 10.0426C11.8522 8.80159 11.8522 7.19418 10.6112 5.95317L8.99786 4.33985C8.81466 4.15665 8.62555 3.96755 8.44827 3.77844C8.09369 3.41205 7.72139 3.03383 7.33726 2.67926C6.76403 2.11194 6.07852 1.81055 5.35755 1.81055C4.63658 1.81055 3.93925 2.11194 3.34829 2.67926C3.34238 2.68517 3.34238 2.68517 3.33647 2.69108L1.32721 4.71807C0.570779 5.47449 0.139378 6.39639 0.0448249 7.46603C-0.0970053 9.19163 0.41122 10.799 0.801253 11.8509C1.75861 14.4334 3.18873 16.8268 5.32209 19.3916C7.91049 22.4823 11.0248 24.923 14.5824 26.6426C15.9416 27.2868 17.7559 28.0491 19.7829 28.1791C19.907 28.1851 20.037 28.191 20.1552 28.191C21.5203 28.191 22.6667 27.7005 23.565 26.7254C23.5709 26.7136 23.5827 26.7077 23.5886 26.6958C23.8959 26.3235 24.2505 25.9867 24.6228 25.6262C24.8769 25.3839 25.137 25.1298 25.3911 24.8639C25.9761 24.2552 26.2834 23.546 26.2834 22.8191C26.2834 22.0864 25.9702 21.3831 25.3733 20.7922L22.129 17.536ZM24.2446 23.7588C24.2387 23.7588 24.2387 23.7647 24.2446 23.7588C24.0141 24.007 23.7777 24.2315 23.5236 24.4797C23.1395 24.8461 22.7495 25.2303 22.3831 25.6617C21.7862 26.2999 21.083 26.6013 20.1611 26.6013C20.0724 26.6013 19.9779 26.6013 19.8892 26.5954C18.1341 26.4831 16.503 25.7976 15.2798 25.2125C11.9349 23.5933 8.99786 21.2945 6.5572 18.381C4.54203 15.9522 3.19464 13.7066 2.30229 11.2954C1.7527 9.82395 1.55177 8.67749 1.64041 7.59604C1.69951 6.90461 1.96544 6.33138 2.45594 5.84089L4.47111 3.82572C4.76068 3.55388 5.06798 3.40614 5.36937 3.40614C5.74167 3.40614 6.04306 3.6307 6.23217 3.81981C6.23808 3.82572 6.24399 3.83163 6.2499 3.83754C6.61038 4.17438 6.95314 4.52305 7.31362 4.89535C7.49682 5.08446 7.68593 5.27357 7.87503 5.46858L9.48835 7.0819C10.1148 7.70832 10.1148 8.28746 9.48835 8.91388C9.31698 9.08525 9.15151 9.25663 8.98013 9.4221C8.48372 9.93032 8.01096 10.4031 7.49682 10.864C7.485 10.8759 7.47318 10.8818 7.46727 10.8936C6.95905 11.4018 7.0536 11.8982 7.15997 12.2351C7.16588 12.2528 7.17179 12.2705 7.1777 12.2883C7.59728 13.3047 8.18824 14.2621 9.0865 15.4026L9.09241 15.4085C10.7235 17.4178 12.4432 18.9838 14.3401 20.1835C14.5824 20.3371 14.8306 20.4612 15.067 20.5794C15.2798 20.6858 15.4807 20.7862 15.6521 20.8926C15.6757 20.9044 15.6993 20.9222 15.723 20.934C15.9239 21.0344 16.113 21.0817 16.308 21.0817C16.7985 21.0817 17.1058 20.7744 17.2063 20.674L19.2274 18.6529C19.4283 18.452 19.7474 18.2097 20.1197 18.2097C20.4861 18.2097 20.7875 18.4401 20.9707 18.6411C20.9766 18.647 20.9766 18.647 20.9825 18.6529L24.2387 21.9091C24.8474 22.5118 24.8474 23.1324 24.2446 23.7588Z" fill="currentColor"></path><path d="M15.1313 6.85216C16.6796 7.11219 18.0861 7.84497 19.2089 8.9678C20.3317 10.0906 21.0586 11.4971 21.3245 13.0454C21.3895 13.4354 21.7264 13.7073 22.1105 13.7073C22.1578 13.7073 22.1991 13.7014 22.2464 13.6955C22.6837 13.6246 22.9733 13.2109 22.9024 12.7736C22.5832 10.9002 21.6968 9.19236 20.3435 7.83907C18.9902 6.48577 17.2824 5.59933 15.409 5.28021C14.9717 5.2093 14.564 5.49887 14.4872 5.93027C14.4103 6.36167 14.694 6.78125 15.1313 6.85216Z" fill="currentColor"></path><path d="M27.968 12.5428C27.4421 9.45799 25.9883 6.65093 23.7545 4.41711C21.5207 2.18328 18.7136 0.729523 15.6288 0.203569C15.1974 0.126744 14.7896 0.422224 14.7128 0.853624C14.6419 1.29093 14.9315 1.6987 15.3688 1.77552C18.1227 2.24238 20.6342 3.5484 22.6317 5.53993C24.6291 7.53737 25.9292 10.0489 26.3961 12.8028C26.4611 13.1929 26.7979 13.4647 27.1821 13.4647C27.2293 13.4647 27.2707 13.4588 27.318 13.4529C27.7494 13.3879 28.0449 12.9742 27.968 12.5428Z" fill="currentColor"></path></g></svg>