<svg xmlns="http://www.w3.org/2000/svg" width="58" height="58" viewBox="0 0 58 58" fill="none"><path opacity="0.2" fill-rule="evenodd" clip-rule="evenodd" d="M29 5.27273C15.8958 5.27273 5.27273 15.8958 5.27273 29C5.27273 42.1042 15.8958 52.7273 29 52.7273C42.1042 52.7273 52.7273 42.1042 52.7273 29C52.7273 15.8958 42.1042 5.27273 29 5.27273ZM0 29C0 12.9837 12.9837 0 29 0C45.0163 0 58 12.9837 58 29C58 45.0163 45.0163 58 29 58C12.9837 58 0 45.0163 0 29Z" fill="#8E8E8E"></path><path fill-rule="evenodd" clip-rule="evenodd" d="M55.3633 26.3635C56.8193 26.3635 57.9996 27.5439 57.9996 28.9999C57.9996 32.8082 57.2495 36.5793 55.7922 40.0977C54.3348 43.6162 52.1986 46.8131 49.5057 49.506C46.8128 52.1989 43.6159 54.335 40.0975 55.7924C36.579 57.2498 32.808 57.9999 28.9996 57.9999C27.5436 57.9999 26.3633 56.8195 26.3633 55.3635C26.3633 53.9075 27.5436 52.7272 28.9996 52.7272C32.1156 52.7272 35.201 52.1134 38.0797 50.921C40.9584 49.7286 43.5741 47.9809 45.7774 45.7776C47.9806 43.5743 49.7284 40.9586 50.9208 38.0799C52.1132 35.2012 52.7269 32.1158 52.7269 28.9999C52.7269 27.5439 53.9073 26.3635 55.3633 26.3635Z" fill="#8E8E8E"></path></svg>