<svg xmlns="http://www.w3.org/2000/svg" xmlns:xlink="http://www.w3.org/1999/xlink" id="Layer_1" x="0px" y="0px" viewBox="0 0 25 38" style="enable-background:new 0 0 25 38;" xml:space="preserve"><g>	<path d="M3.5,37c-1.1,0-2-0.2-2.5-0.7c-0.4-0.3-0.8-1-0.5-2c0.2-0.8,0.5-2.1,0.8-3.5c0-0.3,0.1-0.7,0.1-1.1  c0.2-3.2,0.5-7.2,1.9-9.9l0.3-0.6l0.7,0.2c0.7,0.3,0.8,0.3-0.5,6.8c-0.3,1.6-0.7,3.3-1,4.8c0,0.1,0,0.1,0,0.2c0,0.5,0,0.9,0,1.1  c0.2-0.1,0.3-0.2,0.5-0.3c0.5-0.4,1.2-0.8,2-1.1c7.4-3.4,14.7-15.2,18.3-29.6c0.1-0.4,0.5-0.6,0.9-0.5c0.4,0.1,0.6,0.5,0.5,0.9  c-3.7,14.7-11.4,27-19.1,30.6c-0.6,0.3-1.2,0.7-1.7,1C3.3,33.7,2.6,34.2,2,34c-0.1,0.2-0.1,0.5-0.2,0.7c-0.1,0.4,0,0.5,0.1,0.6  c0.7,0.7,3.9,0.7,14.7-3.1l1-0.4c0.4-0.1,0.8,0.1,1,0.5s-0.1,0.8-0.5,1l-1,0.4C11.8,35.4,6.6,37,3.5,37z"></path></g></svg>