<svg xmlns="http://www.w3.org/2000/svg" width="466" height="418" viewBox="0 0 466 418" fill="none"><path d="M0.734111 417.806C35.3104 416.294 68.5641 405.332 100.117 391.913C131.859 378.494 164.357 363.186 188.164 337.482C200.823 323.686 210.459 307.432 219.906 291.367C228.975 275.869 238.233 260.183 247.492 244.685C266.008 213.69 284.902 182.505 305.874 153.022C326.658 123.916 350.087 96.3229 377.105 72.8873C380.506 70.0524 383.718 67.2175 387.119 64.3825C387.875 63.8155 386.93 62.6815 386.363 63.2485C358.778 85.1721 335.16 111.821 313.81 139.792C292.271 167.953 273.188 198.003 254.86 228.431C245.602 243.74 236.533 259.427 226.897 274.735C217.072 290.422 207.436 306.298 196.288 321.04C185.33 335.592 172.482 348.066 157.744 358.461C143.385 368.667 127.703 376.794 111.643 384.164C80.2784 398.528 47.7805 411.569 13.2043 415.916C9.04754 416.483 4.7019 416.861 0.545187 417.05C-0.210579 416.672 -0.210596 417.995 0.734111 417.806Z" fill="currentColor"></path><path d="M276.59 196.491C281.314 183.64 292.65 174.946 304.742 169.465C317.59 163.606 331.95 161.527 345.554 158.503C358.969 155.479 371.628 150.943 383.72 144.328C396.568 137.336 408.66 128.831 420.753 120.704C435.679 110.687 450.605 100.859 465.532 90.8425C466.665 90.0865 465.532 88.5745 464.398 89.1415C450.983 98.0243 437.568 106.907 424.153 115.79C411.494 124.106 399.024 132.8 385.987 140.548C373.139 148.108 359.724 153.211 345.176 156.613C331.572 159.637 317.779 161.905 305.12 167.575C292.461 173.434 280.747 182.695 276.023 196.302C276.023 196.68 276.401 196.869 276.59 196.491Z" fill="currentColor"></path><path d="M460.616 88.0074C440.588 101.237 415.648 101.615 392.597 105.773C380.694 107.852 369.168 111.065 358.588 116.924C346.118 123.728 335.348 133.178 324.578 142.438C310.785 154.345 296.993 166.252 283.2 178.159C283.578 178.537 284.145 179.104 284.523 179.482C300.016 161.716 308.329 139.414 313.431 116.735C318.721 92.7324 321.366 67.7848 324.011 43.4043C325.523 29.2296 326.845 15.2438 328.357 1.06912C328.357 0.31313 327.223 -0.442844 326.846 0.313142C314.375 20.1578 305.306 42.2703 299.638 64.9499C293.97 87.8184 292.836 111.065 291.325 134.5C290.38 147.73 289.435 161.149 286.412 174.19C286.034 175.513 288.301 175.891 288.49 174.568C293.214 151.699 293.214 128.453 294.914 105.395C296.615 81.9596 301.527 58.902 310.219 36.9784C315.131 24.6937 321.366 12.7869 328.168 1.44713C327.601 1.25814 327.034 1.0691 326.468 0.880108C324.389 25.6386 321.744 50.2082 318.721 74.9667C315.698 98.5912 312.297 122.594 303.417 144.895C298.504 157.18 291.891 168.52 283.2 178.537C282.444 179.293 283.578 180.616 284.523 179.86C296.804 169.276 308.896 158.503 321.177 147.919C331.947 138.658 342.717 128.831 354.809 121.271C365.956 114.278 378.049 110.309 390.897 107.852C402.611 105.584 414.325 104.45 426.04 102.371C438.51 100.103 450.98 96.5123 461.75 89.3304C462.694 88.7634 461.561 87.4404 460.616 88.0074Z" fill="currentColor"></path><path d="M284.143 177.592C280.742 182.695 278.286 188.554 277.341 194.791C277.152 195.924 279.042 196.303 279.231 195.169C280.176 189.31 282.443 183.829 286.033 179.293C286.977 177.781 285.088 176.269 284.143 177.592Z" fill="currentColor"></path><path d="M177.204 347.688C193.075 339.751 204.601 325.954 216.693 313.48C223.117 306.865 229.919 300.628 237.477 295.525C245.223 290.423 253.726 286.076 262.228 282.485C279.044 275.303 296.804 270.389 313.998 263.585C331.569 256.781 348.574 247.898 364.256 237.504C382.206 225.786 398.644 211.989 413.192 196.491C414.137 195.357 412.625 193.656 411.303 194.601C382.395 218.415 342.717 219.171 308.519 230.7C270.73 243.362 238.799 269.444 214.804 301.006C201.956 318.016 190.241 338.428 170.025 347.688C169.08 348.066 169.647 349.767 170.591 349.2C188.352 341.452 200.066 325.765 211.214 310.645C223.306 294.391 236.154 279.083 251.836 266.231C267.329 253.379 284.712 242.606 303.606 235.425C320.989 228.81 339.505 225.408 357.643 221.061C377.293 216.336 396.943 209.91 412.625 196.869C412.058 196.302 411.492 195.546 410.736 194.979C384.662 222.573 352.731 244.496 317.777 259.238C300.772 266.42 283.011 271.523 266.007 278.327C249.569 284.942 234.265 293.446 221.417 305.92C206.868 319.906 194.776 337.483 176.26 346.744C176.449 347.122 176.638 348.066 177.204 347.688Z" fill="currentColor"></path><path d="M154.722 359.028C181.174 337.671 202.713 310.455 217.64 280.027C232.755 249.221 241.446 215.201 242.58 180.804C243.147 161.715 241.446 142.249 237.101 123.538C236.912 122.593 235.211 122.404 235.211 123.538C234.266 153.777 221.418 181.182 211.593 209.153C206.681 222.95 202.524 237.314 201.013 251.867C199.312 267.364 200.824 283.051 198.368 298.549C196.1 313.857 189.298 329.544 175.317 337.482C174.183 338.049 175.317 339.561 176.45 338.994C188.165 332.379 194.967 320.094 198.368 307.431C202.335 292.501 201.58 276.814 202.335 261.505C203.091 246.008 206.492 230.888 211.216 215.957C215.75 201.594 221.418 187.419 226.142 173.055C231.432 157.179 235.967 140.737 236.723 123.916C236.156 123.916 235.589 123.916 234.833 123.916C241.824 156.99 241.446 191.388 234.077 224.273C226.898 257.347 212.727 289.099 192.888 316.503C181.741 332.001 168.515 346.176 153.777 358.461C153.777 358.839 154.344 359.406 154.722 359.028Z" fill="currentColor"></path><path d="M174.938 344.097C175.126 343.531 174.182 342.964 173.994 343.719C173.616 344.475 174.56 344.852 174.938 344.097Z" fill="currentColor"></path><path d="M132.24 374.715C179.853 349.011 237.102 350.712 287.55 366.399C303.421 371.313 318.725 377.55 333.651 384.732C333.84 383.976 334.029 383.22 334.218 382.653C307.577 379.251 281.881 392.102 255.241 389.457C240.125 387.945 225.766 382.653 210.84 379.818C196.669 377.172 182.12 375.66 167.572 375.471C150.945 375.282 134.318 376.605 118.069 379.818C118.447 380.385 118.825 381.141 119.014 381.708C122.982 376.227 130.539 374.715 136.586 373.014C142.821 371.313 149.245 369.801 155.669 368.667C168.139 366.399 180.798 365.454 193.646 365.265C219.342 364.887 245.038 368.289 270.356 372.636C284.716 375.093 298.886 378.117 313.057 381.141C314.001 381.33 314.19 379.818 313.246 379.629C287.172 374.337 261.098 369.045 234.646 366.21C208.761 363.375 182.687 362.808 156.991 366.966C149.811 368.1 142.821 369.612 135.83 371.502C129.406 373.203 121.47 374.904 117.125 380.385C116.558 381.141 117.125 382.464 118.069 382.275C147.166 377.739 176.641 377.172 205.738 381.897C220.475 384.354 234.835 388.89 249.572 391.158C262.987 393.237 276.024 391.535 289.25 389.079C303.799 386.433 318.725 383.22 333.651 385.299C334.974 385.488 335.541 383.598 334.218 383.22C307.389 370.368 278.858 360.351 249.195 356.004C223.31 352.224 196.669 352.791 171.162 359.028C157.18 362.43 143.765 367.533 131.106 374.526C130.728 374.148 131.484 375.093 132.24 374.715Z" fill="currentColor"></path><path d="M322.69 378.684C323.256 377.55 321.556 376.794 320.989 377.928C320.422 379.062 322.123 379.818 322.69 378.684Z" fill="currentColor"></path><path d="M190.998 338.617C209.326 313.481 231.999 291.557 257.695 274.169C270.543 265.476 284.335 257.727 298.506 251.49C312.866 245.064 327.792 240.528 342.718 235.614C359.534 230.322 376.35 224.463 391.276 214.824C392.41 214.068 391.276 212.557 390.143 213.312C363.313 231.078 330.815 236.37 301.718 249.033C273.566 261.318 247.303 278.327 224.63 299.117C211.782 310.835 200.257 323.875 190.054 337.861C189.487 338.428 190.432 339.184 190.998 338.617Z" fill="currentColor"></path><path d="M287.361 174.945C306.255 160.771 325.338 146.407 347.444 137.146C358.592 132.421 370.117 130.153 381.643 126.94C387.689 125.239 393.357 123.16 398.836 120.325C404.505 117.49 409.984 114.278 415.463 111.443C427.555 105.395 440.404 101.048 453.818 98.7798C454.763 98.5908 454.574 97.0788 453.629 97.2678C441.726 99.1577 430.012 102.371 419.053 107.474C407.717 112.765 397.514 119.947 385.611 123.916C374.085 127.885 361.993 129.964 350.467 134.311C339.509 138.469 329.306 144.139 319.481 150.565C308.145 157.936 297.375 165.873 286.605 174C286.038 174.567 286.605 175.512 287.361 174.945Z" fill="currentColor"></path><path d="M290.76 168.708C297.94 160.581 299.829 150.186 301.908 139.792C303.041 134.122 304.364 128.452 306.82 122.971C309.087 117.868 311.355 112.954 311.544 107.473C311.733 102.37 310.977 97.2674 310.788 92.1645C310.599 86.4946 310.599 80.8247 310.977 74.9658C311.733 63.8151 313.433 52.4753 316.267 41.7025C319.479 29.2287 324.014 17.1329 329.871 5.60414C330.249 4.84816 329.115 4.28119 328.737 5.03717C318.723 24.5038 312.299 46.0494 310.221 67.973C309.276 78.7457 309.276 89.3295 310.032 100.102C310.599 106.339 310.41 111.82 307.954 117.679C305.875 122.593 303.797 127.318 302.474 132.61C299.451 144.516 298.885 158.502 289.815 167.763C289.249 168.519 290.193 169.275 290.76 168.708Z" fill="currentColor"></path><path d="M238.423 137.335C237.289 148.486 236.534 159.637 234.833 170.788C233.322 181.938 231.054 192.9 228.598 203.862C223.308 226.542 216.695 248.843 210.46 271.145C206.87 283.997 203.091 296.848 199.312 309.511C198.934 310.645 200.635 311.401 201.013 310.267C208.004 287.776 214.05 265.097 220.285 242.417C226.331 220.116 232.377 197.814 235.778 174.946C237.667 162.472 239.368 149.809 239.557 137.146C239.368 136.768 238.423 136.768 238.423 137.335Z" fill="currentColor"></path><path d="M65.7309 403.631C79.1457 398.528 92.1827 392.669 104.086 384.92C116.178 377.171 126.948 367.343 135.828 356.004C154.533 332.001 164.736 302.707 170.782 273.223C174.372 255.458 176.262 237.692 178.718 219.737C178.907 218.981 177.773 218.603 177.395 219.359C163.414 244.118 149.621 269.065 138.662 295.525C129.215 318.204 122.602 342.207 110.699 363.753C104.086 375.659 95.5836 386.432 84.625 394.559C83.8692 395.126 84.625 396.638 85.3808 396.071C132.616 371.69 147.92 316.693 162.469 269.821C167.003 254.891 171.727 239.96 176.262 225.029C176.45 224.273 175.317 223.706 175.128 224.462C167.192 250.355 159.635 276.436 150.943 302.329C142.819 326.52 132.616 350.334 115.8 369.8C107.109 379.817 96.7172 388.322 85.0029 394.37C85.1918 394.937 85.5697 395.315 85.7586 395.882C105.409 381.518 116.745 359.217 125.247 336.915C129.782 325.386 133.561 313.669 137.906 302.14C143.008 288.721 149.054 275.68 155.478 262.829C162.847 248.276 170.782 234.101 178.718 219.926C178.34 219.737 177.773 219.737 177.395 219.548C175.317 235.046 172.861 250.544 169.838 265.852C166.814 280.972 163.225 295.903 157.934 310.456C147.731 337.86 132.049 363.186 108.054 380.573C95.0168 390.023 80.4683 397.016 65.5419 403.064C65.164 403.064 65.353 403.82 65.7309 403.631Z" fill="currentColor"></path></svg>