<svg xmlns="http://www.w3.org/2000/svg" width="261" height="48" viewBox="0 0 261 48" fill="none"><path d="M0 4.6H17.46V10.6H6.6V22.3H15.12V28.3H6.6V46.6H0V4.6Z" fill="url(#paint0_linear_10266_9737)"></path><path d="M22.7914 4.6H31.7314L38.5714 46.6H31.9714L30.7714 38.26V38.38H23.2714L22.0714 46.6H15.9514L22.7914 4.6ZM29.9914 32.68L27.0514 11.92H26.9314L24.0514 32.68H29.9914Z" fill="url(#paint1_linear_10266_9737)"></path><path d="M40.7734 4.6H47.3734V46.6H40.7734V4.6Z" fill="url(#paint2_linear_10266_9737)"></path><path d="M56.4764 10.6H49.5764V4.6H69.9764V10.6H63.0764V46.6H56.4764V10.6Z" fill="url(#paint3_linear_10266_9737)"></path><path d="M72.1719 4.6H78.7719V21.7H85.8519V4.6H92.4519V46.6H85.8519V27.7H78.7719V46.6H72.1719V4.6Z" fill="url(#paint4_linear_10266_9737)"></path><path d="M114.277 47.2C111.117 47.2 108.697 46.3 107.017 44.5C105.377 42.7 104.557 40.16 104.557 36.88V14.32C104.557 11.04 105.377 8.5 107.017 6.7C108.697 4.9 111.117 4 114.277 4C117.437 4 119.837 4.9 121.477 6.7C123.157 8.5 123.997 11.04 123.997 14.32V18.76H117.757V13.9C117.757 11.3 116.657 10 114.457 10C112.257 10 111.157 11.3 111.157 13.9V37.36C111.157 39.92 112.257 41.2 114.457 41.2C116.657 41.2 117.757 39.92 117.757 37.36V30.94H123.997V36.88C123.997 40.16 123.157 42.7 121.477 44.5C119.837 46.3 117.437 47.2 114.277 47.2Z" fill="url(#paint5_linear_10266_9737)"></path><path d="M136.602 47.2C133.362 47.2 130.883 46.28 129.163 44.44C127.443 42.6 126.582 40 126.582 36.64V14.56C126.582 11.2 127.443 8.6 129.163 6.76C130.883 4.92 133.362 4 136.602 4C139.842 4 142.322 4.92 144.042 6.76C145.762 8.6 146.622 11.2 146.622 14.56V36.64C146.622 40 145.762 42.6 144.042 44.44C142.322 46.28 139.842 47.2 136.602 47.2ZM136.602 41.2C138.882 41.2 140.023 39.82 140.023 37.06V14.14C140.023 11.38 138.882 10 136.602 10C134.322 10 133.182 11.38 133.182 14.14V37.06C133.182 39.82 134.322 41.2 136.602 41.2Z" fill="url(#paint6_linear_10266_9737)"></path><path d="M150.086 4.6H158.366L164.786 29.74H164.906V4.6H170.786V46.6H164.006L156.086 15.94H155.966V46.6H150.086V4.6Z" fill="url(#paint7_linear_10266_9737)"></path><path d="M174.691 4.6H182.971L189.391 29.74H189.511V4.6H195.391V46.6H188.611L180.691 15.94H180.571V46.6H174.691V4.6Z" fill="url(#paint8_linear_10266_9737)"></path><path d="M199.297 4.6H217.297V10.6H205.897V21.7H214.957V27.7H205.897V40.6H217.297V46.6H199.297V4.6Z" fill="url(#paint9_linear_10266_9737)"></path><path d="M229.394 47.2C226.234 47.2 223.814 46.3 222.134 44.5C220.494 42.7 219.674 40.16 219.674 36.88V14.32C219.674 11.04 220.494 8.5 222.134 6.7C223.814 4.9 226.234 4 229.394 4C232.554 4 234.954 4.9 236.594 6.7C238.274 8.5 239.114 11.04 239.114 14.32V18.76H232.874V13.9C232.874 11.3 231.774 10 229.574 10C227.374 10 226.274 11.3 226.274 13.9V37.36C226.274 39.92 227.374 41.2 229.574 41.2C231.774 41.2 232.874 39.92 232.874 37.36V30.94H239.114V36.88C239.114 40.16 238.274 42.7 236.594 44.5C234.954 46.3 232.554 47.2 229.394 47.2Z" fill="url(#paint10_linear_10266_9737)"></path><path d="M247.223 10.6H240.322V4.6H260.723V10.6H253.822V46.6H247.223V10.6Z" fill="url(#paint11_linear_10266_9737)"></path><defs><linearGradient id="paint0_linear_10266_9737" x1="24.3889" y1="72.846" x2="16.5082" y2="-11.1831" gradientUnits="userSpaceOnUse"><stop offset="0.59751" stop-color="#F3EBDD"></stop><stop offset="1" stop-color="#FE9446"></stop></linearGradient><linearGradient id="paint1_linear_10266_9737" x1="24.3889" y1="72.846" x2="16.5082" y2="-11.1831" gradientUnits="userSpaceOnUse"><stop offset="0.59751" stop-color="#F3EBDD"></stop><stop offset="1" stop-color="#FE9446"></stop></linearGradient><linearGradient id="paint2_linear_10266_9737" x1="24.3889" y1="72.846" x2="16.5082" y2="-11.1831" gradientUnits="userSpaceOnUse"><stop offset="0.59751" stop-color="#F3EBDD"></stop><stop offset="1" stop-color="#FE9446"></stop></linearGradient><linearGradient id="paint3_linear_10266_9737" x1="24.3889" y1="72.846" x2="16.5082" y2="-11.1831" gradientUnits="userSpaceOnUse"><stop offset="0.59751" stop-color="#F3EBDD"></stop><stop offset="1" stop-color="#FE9446"></stop></linearGradient><linearGradient id="paint4_linear_10266_9737" x1="24.3889" y1="72.846" x2="16.5082" y2="-11.1831" gradientUnits="userSpaceOnUse"><stop offset="0.59751" stop-color="#F3EBDD"></stop><stop offset="1" stop-color="#FE9446"></stop></linearGradient><linearGradient id="paint5_linear_10266_9737" x1="24.3889" y1="72.846" x2="16.5082" y2="-11.1831" gradientUnits="userSpaceOnUse"><stop offset="0.59751" stop-color="#F3EBDD"></stop><stop offset="1" stop-color="#FE9446"></stop></linearGradient><linearGradient id="paint6_linear_10266_9737" x1="24.3889" y1="72.846" x2="16.5082" y2="-11.1831" gradientUnits="userSpaceOnUse"><stop offset="0.59751" stop-color="#F3EBDD"></stop><stop offset="1" stop-color="#FE9446"></stop></linearGradient><linearGradient id="paint7_linear_10266_9737" x1="24.3889" y1="72.846" x2="16.5082" y2="-11.1831" gradientUnits="userSpaceOnUse"><stop offset="0.59751" stop-color="#F3EBDD"></stop><stop offset="1" stop-color="#FE9446"></stop></linearGradient><linearGradient id="paint8_linear_10266_9737" x1="24.3889" y1="72.846" x2="16.5082" y2="-11.1831" gradientUnits="userSpaceOnUse"><stop offset="0.59751" stop-color="#F3EBDD"></stop><stop offset="1" stop-color="#FE9446"></stop></linearGradient><linearGradient id="paint9_linear_10266_9737" x1="24.3889" y1="72.846" x2="16.5082" y2="-11.1831" gradientUnits="userSpaceOnUse"><stop offset="0.59751" stop-color="#F3EBDD"></stop><stop offset="1" stop-color="#FE9446"></stop></linearGradient><linearGradient id="paint10_linear_10266_9737" x1="24.3889" y1="72.846" x2="16.5082" y2="-11.1831" gradientUnits="userSpaceOnUse"><stop offset="0.59751" stop-color="#F3EBDD"></stop><stop offset="1" stop-color="#FE9446"></stop></linearGradient><linearGradient id="paint11_linear_10266_9737" x1="24.3889" y1="72.846" x2="16.5082" y2="-11.1831" gradientUnits="userSpaceOnUse"><stop offset="0.59751" stop-color="#F3EBDD"></stop><stop offset="1" stop-color="#FE9446"></stop></linearGradient></defs></svg>