<svg width="81" height="63" viewBox="0 0 81 63" fill="none" xmlns="http://www.w3.org/2000/svg">
<path d="M0.0289937 0H14.5641V4.9763H5.52337V14.6801H12.6161V19.6564H5.52337V34.8341H0.0289937V0Z" fill="#F8F1E6"/>
<path d="M0.0289937 0H14.5641V4.9763H5.52337V14.6801H12.6161V19.6564H5.52337V34.8341H0.0289937V0Z" fill="url(#paint0_linear_10283_804)"/>
<path d="M19.8349 0H27.2773L32.9714 34.8341H27.477L26.4781 27.9171V28.0166H20.2345L19.2355 34.8341H14.1407L19.8349 0ZM25.8287 23.2891L23.3812 6.07109H23.2813L20.8838 23.2891H25.8287Z" fill="#F8F1E6"/>
<path d="M19.8349 0H27.2773L32.9714 34.8341H27.477L26.4781 27.9171V28.0166H20.2345L19.2355 34.8341H14.1407L19.8349 0ZM25.8287 23.2891L23.3812 6.07109H23.2813L20.8838 23.2891H25.8287Z" fill="url(#paint1_linear_10283_804)"/>
<path d="M35.637 0H41.1314V34.8341H35.637V0Z" fill="#F8F1E6"/>
<path d="M35.637 0H41.1314V34.8341H35.637V0Z" fill="url(#paint2_linear_10283_804)"/>
<path d="M49.5419 4.9763H43.7978V0H60.7804V4.9763H55.0363V34.8341H49.5419V4.9763Z" fill="#F8F1E6"/>
<path d="M49.5419 4.9763H43.7978V0H60.7804V4.9763H55.0363V34.8341H49.5419V4.9763Z" fill="url(#paint3_linear_10283_804)"/>
<path d="M63.4406 0H68.935V14.1825H74.8289V0H80.3233V34.8341H74.8289V19.1588H68.935V34.8341H63.4406V0Z" fill="#F8F1E6"/>
<path d="M63.4406 0H68.935V14.1825H74.8289V0H80.3233V34.8341H74.8289V19.1588H68.935V34.8341H63.4406V0Z" fill="url(#paint4_linear_10283_804)"/>
<path d="M4.85503 63C3.27664 63 2.06788 62.5521 1.22874 61.6564C0.40958 60.7607 0 59.4967 0 57.8645V46.6379C0 45.0057 0.40958 43.7417 1.22874 42.846C2.06788 41.9502 3.27664 41.5024 4.85503 41.5024C6.43341 41.5024 7.63218 41.9502 8.45134 42.846C9.29048 43.7417 9.71005 45.0057 9.71005 46.6379V48.8474H6.59325V46.4289C6.59325 45.1351 6.04381 44.4881 4.94493 44.4881C3.84606 44.4881 3.29662 45.1351 3.29662 46.4289V58.1033C3.29662 59.3772 3.84606 60.0142 4.94493 60.0142C6.04381 60.0142 6.59325 59.3772 6.59325 58.1033V54.9085H9.71005V57.8645C9.71005 59.4967 9.29048 60.7607 8.45134 61.6564C7.63218 62.5521 6.43341 63 4.85503 63Z" fill="#F8F1E6"/>
<path d="M4.85503 63C3.27664 63 2.06788 62.5521 1.22874 61.6564C0.40958 60.7607 0 59.4967 0 57.8645V46.6379C0 45.0057 0.40958 43.7417 1.22874 42.846C2.06788 41.9502 3.27664 41.5024 4.85503 41.5024C6.43341 41.5024 7.63218 41.9502 8.45134 42.846C9.29048 43.7417 9.71005 45.0057 9.71005 46.6379V48.8474H6.59325V46.4289C6.59325 45.1351 6.04381 44.4881 4.94493 44.4881C3.84606 44.4881 3.29662 45.1351 3.29662 46.4289V58.1033C3.29662 59.3772 3.84606 60.0142 4.94493 60.0142C6.04381 60.0142 6.59325 59.3772 6.59325 58.1033V54.9085H9.71005V57.8645C9.71005 59.4967 9.29048 60.7607 8.45134 61.6564C7.63218 62.5521 6.43341 63 4.85503 63Z" fill="url(#paint5_linear_10283_804)"/>
<path d="M16.5061 63C14.8877 63 13.649 62.5422 12.7899 61.6265C11.9307 60.7109 11.5012 59.4171 11.5012 57.745V46.7573C11.5012 45.0853 11.9307 43.7915 12.7899 42.8758C13.649 41.9602 14.8877 41.5024 16.5061 41.5024C18.1244 41.5024 19.3631 41.9602 20.2223 42.8758C21.0814 43.7915 21.5109 45.0853 21.5109 46.7573V57.745C21.5109 59.4171 21.0814 60.7109 20.2223 61.6265C19.3631 62.5422 18.1244 63 16.5061 63ZM16.5061 60.0142C17.6449 60.0142 18.2143 59.3275 18.2143 57.954V46.5483C18.2143 45.1749 17.6449 44.4881 16.5061 44.4881C15.3672 44.4881 14.7978 45.1749 14.7978 46.5483V57.954C14.7978 59.3275 15.3672 60.0142 16.5061 60.0142Z" fill="#F8F1E6"/>
<path d="M16.5061 63C14.8877 63 13.649 62.5422 12.7899 61.6265C11.9307 60.7109 11.5012 59.4171 11.5012 57.745V46.7573C11.5012 45.0853 11.9307 43.7915 12.7899 42.8758C13.649 41.9602 14.8877 41.5024 16.5061 41.5024C18.1244 41.5024 19.3631 41.9602 20.2223 42.8758C21.0814 43.7915 21.5109 45.0853 21.5109 46.7573V57.745C21.5109 59.4171 21.0814 60.7109 20.2223 61.6265C19.3631 62.5422 18.1244 63 16.5061 63ZM16.5061 60.0142C17.6449 60.0142 18.2143 59.3275 18.2143 57.954V46.5483C18.2143 45.1749 17.6449 44.4881 16.5061 44.4881C15.3672 44.4881 14.7978 45.1749 14.7978 46.5483V57.954C14.7978 59.3275 15.3672 60.0142 16.5061 60.0142Z" fill="url(#paint6_linear_10283_804)"/>
<path d="M23.7404 41.8009H27.8761L31.0828 54.3114H31.1428V41.8009H34.0798V62.7014H30.6932L26.7373 47.4441H26.6774V62.7014H23.7404V41.8009Z" fill="#F8F1E6"/>
<path d="M23.7404 41.8009H27.8761L31.0828 54.3114H31.1428V41.8009H34.0798V62.7014H30.6932L26.7373 47.4441H26.6774V62.7014H23.7404V41.8009Z" fill="url(#paint7_linear_10283_804)"/>
<path d="M36.53 41.8009H40.6658L43.8725 54.3114H43.9324V41.8009H46.8694V62.7014H43.4829L39.5269 47.4441H39.467V62.7014H36.53V41.8009Z" fill="#F8F1E6"/>
<path d="M36.53 41.8009H40.6658L43.8725 54.3114H43.9324V41.8009H46.8694V62.7014H43.4829L39.5269 47.4441H39.467V62.7014H36.53V41.8009Z" fill="url(#paint8_linear_10283_804)"/>
<path d="M49.3196 41.8009H58.3104V44.7867H52.6163V50.3104H57.1416V53.2962H52.6163V59.7156H58.3104V62.7014H49.3196V41.8009Z" fill="#F8F1E6"/>
<path d="M49.3196 41.8009H58.3104V44.7867H52.6163V50.3104H57.1416V53.2962H52.6163V59.7156H58.3104V62.7014H49.3196V41.8009Z" fill="url(#paint9_linear_10283_804)"/>
<path d="M64.8522 63C63.2738 63 62.065 62.5521 61.2259 61.6564C60.4067 60.7607 59.9971 59.4967 59.9971 57.8645V46.6379C59.9971 45.0057 60.4067 43.7417 61.2259 42.846C62.065 41.9502 63.2738 41.5024 64.8522 41.5024C66.4305 41.5024 67.6293 41.9502 68.4485 42.846C69.2876 43.7417 69.7072 45.0057 69.7072 46.6379V48.8474H66.5904V46.4289C66.5904 45.1351 66.0409 44.4881 64.9421 44.4881C63.8432 44.4881 63.2938 45.1351 63.2938 46.4289V58.1033C63.2938 59.3772 63.8432 60.0142 64.9421 60.0142C66.0409 60.0142 66.5904 59.3772 66.5904 58.1033V54.9085H69.7072V57.8645C69.7072 59.4967 69.2876 60.7607 68.4485 61.6564C67.6293 62.5521 66.4305 63 64.8522 63Z" fill="#F8F1E6"/>
<path d="M64.8522 63C63.2738 63 62.065 62.5521 61.2259 61.6564C60.4067 60.7607 59.9971 59.4967 59.9971 57.8645V46.6379C59.9971 45.0057 60.4067 43.7417 61.2259 42.846C62.065 41.9502 63.2738 41.5024 64.8522 41.5024C66.4305 41.5024 67.6293 41.9502 68.4485 42.846C69.2876 43.7417 69.7072 45.0057 69.7072 46.6379V48.8474H66.5904V46.4289C66.5904 45.1351 66.0409 44.4881 64.9421 44.4881C63.8432 44.4881 63.2938 45.1351 63.2938 46.4289V58.1033C63.2938 59.3772 63.8432 60.0142 64.9421 60.0142C66.0409 60.0142 66.5904 59.3772 66.5904 58.1033V54.9085H69.7072V57.8645C69.7072 59.4967 69.2876 60.7607 68.4485 61.6564C67.6293 62.5521 66.4305 63 64.8522 63Z" fill="url(#paint10_linear_10283_804)"/>
<path d="M74.2569 44.7867H70.8104V41.8009H81V44.7867H77.5535V62.7014H74.2569V44.7867Z" fill="#F8F1E6"/>
<path d="M74.2569 44.7867H70.8104V41.8009H81V44.7867H77.5535V62.7014H74.2569V44.7867Z" fill="url(#paint11_linear_10283_804)"/>
<defs>
<linearGradient id="paint0_linear_10283_804" x1="8.25" y1="74.8696" x2="-14.1271" y2="-0.66074" gradientUnits="userSpaceOnUse">
<stop offset="0.59751" stop-color="#F3EBDD"/>
<stop offset="1" stop-color="#FE9446"/>
</linearGradient>
<linearGradient id="paint1_linear_10283_804" x1="8.25" y1="74.8696" x2="-14.1271" y2="-0.66074" gradientUnits="userSpaceOnUse">
<stop offset="0.59751" stop-color="#F3EBDD"/>
<stop offset="1" stop-color="#FE9446"/>
</linearGradient>
<linearGradient id="paint2_linear_10283_804" x1="8.25" y1="74.8696" x2="-14.1271" y2="-0.66074" gradientUnits="userSpaceOnUse">
<stop offset="0.59751" stop-color="#F3EBDD"/>
<stop offset="1" stop-color="#FE9446"/>
</linearGradient>
<linearGradient id="paint3_linear_10283_804" x1="8.25" y1="74.8696" x2="-14.1271" y2="-0.66074" gradientUnits="userSpaceOnUse">
<stop offset="0.59751" stop-color="#F3EBDD"/>
<stop offset="1" stop-color="#FE9446"/>
</linearGradient>
<linearGradient id="paint4_linear_10283_804" x1="8.25" y1="74.8696" x2="-14.1271" y2="-0.66074" gradientUnits="userSpaceOnUse">
<stop offset="0.59751" stop-color="#F3EBDD"/>
<stop offset="1" stop-color="#FE9446"/>
</linearGradient>
<linearGradient id="paint5_linear_10283_804" x1="8.25" y1="74.8696" x2="-14.1271" y2="-0.66074" gradientUnits="userSpaceOnUse">
<stop offset="0.59751" stop-color="#F3EBDD"/>
<stop offset="1" stop-color="#FE9446"/>
</linearGradient>
<linearGradient id="paint6_linear_10283_804" x1="8.25" y1="74.8696" x2="-14.1271" y2="-0.66074" gradientUnits="userSpaceOnUse">
<stop offset="0.59751" stop-color="#F3EBDD"/>
<stop offset="1" stop-color="#FE9446"/>
</linearGradient>
<linearGradient id="paint7_linear_10283_804" x1="8.25" y1="74.8696" x2="-14.1271" y2="-0.66074" gradientUnits="userSpaceOnUse">
<stop offset="0.59751" stop-color="#F3EBDD"/>
<stop offset="1" stop-color="#FE9446"/>
</linearGradient>
<linearGradient id="paint8_linear_10283_804" x1="8.25" y1="74.8696" x2="-14.1271" y2="-0.66074" gradientUnits="userSpaceOnUse">
<stop offset="0.59751" stop-color="#F3EBDD"/>
<stop offset="1" stop-color="#FE9446"/>
</linearGradient>
<linearGradient id="paint9_linear_10283_804" x1="8.25" y1="74.8696" x2="-14.1271" y2="-0.66074" gradientUnits="userSpaceOnUse">
<stop offset="0.59751" stop-color="#F3EBDD"/>
<stop offset="1" stop-color="#FE9446"/>
</linearGradient>
<linearGradient id="paint10_linear_10283_804" x1="8.25" y1="74.8696" x2="-14.1271" y2="-0.66074" gradientUnits="userSpaceOnUse">
<stop offset="0.59751" stop-color="#F3EBDD"/>
<stop offset="1" stop-color="#FE9446"/>
</linearGradient>
<linearGradient id="paint11_linear_10283_804" x1="8.25" y1="74.8696" x2="-14.1271" y2="-0.66074" gradientUnits="userSpaceOnUse">
<stop offset="0.59751" stop-color="#F3EBDD"/>
<stop offset="1" stop-color="#FE9446"/>
</linearGradient>
</defs>
</svg>
